<?xml version="1.0" standalone="no"?>
<svg xmlns="http://www.w3.org/2000/svg" width="1000" height="1000" xmlns:xlink="http://www.w3.org/1999/xlink" viewBox="0 0 1000 1000"><defs><clipPath id="clip-path-background-color-1"><rect x="0" y="0" width="1000" height="1000"/></clipPath><clipPath id="clip-path-dot-color-1"><rect x="313" y="7" width="34" height="34" transform="rotate(0,330,24)"/><rect x="347" y="7" width="34" height="34" transform="rotate(0,364,24)"/><rect x="449" y="7" width="34" height="34" transform="rotate(0,466,24)"/><rect x="483" y="7" width="34" height="34" transform="rotate(0,500,24)"/><rect x="517" y="7" width="34" height="34" transform="rotate(0,534,24)"/><rect x="551" y="7" width="34" height="34" transform="rotate(0,568,24)"/><rect x="381" y="41" width="34" height="34" transform="rotate(0,398,58)"/><rect x="415" y="41" width="34" height="34" transform="rotate(0,432,58)"/><rect x="483" y="41" width="34" height="34" transform="rotate(0,500,58)"/><rect x="653" y="41" width="34" height="34" transform="rotate(0,670,58)"/><rect x="687" y="41" width="34" height="34" transform="rotate(0,704,58)"/><rect x="279" y="75" width="34" height="34" transform="rotate(0,296,92)"/><rect x="313" y="75" width="34" height="34" transform="rotate(0,330,92)"/><rect x="449" y="75" width="34" height="34" transform="rotate(0,466,92)"/><rect x="517" y="75" width="34" height="34" transform="rotate(0,534,92)"/><rect x="585" y="75" width="34" height="34" transform="rotate(0,602,92)"/><rect x="653" y="75" width="34" height="34" transform="rotate(0,670,92)"/><rect x="687" y="75" width="34" height="34" transform="rotate(0,704,92)"/><rect x="381" y="109" width="34" height="34" transform="rotate(0,398,126)"/><rect x="415" y="109" width="34" height="34" transform="rotate(0,432,126)"/><rect x="619" y="109" width="34" height="34" transform="rotate(0,636,126)"/><rect x="653" y="109" width="34" height="34" transform="rotate(0,670,126)"/><rect x="687" y="109" width="34" height="34" transform="rotate(0,704,126)"/><rect x="279" y="143" width="34" height="34" transform="rotate(0,296,160)"/><rect x="483" y="143" width="34" height="34" transform="rotate(0,500,160)"/><rect x="517" y="143" width="34" height="34" transform="rotate(0,534,160)"/><rect x="279" y="177" width="34" height="34" transform="rotate(0,296,194)"/><rect x="381" y="177" width="34" height="34" transform="rotate(0,398,194)"/><rect x="415" y="177" width="34" height="34" transform="rotate(0,432,194)"/><rect x="449" y="177" width="34" height="34" transform="rotate(0,466,194)"/><rect x="483" y="177" width="34" height="34" transform="rotate(0,500,194)"/><rect x="517" y="177" width="34" height="34" transform="rotate(0,534,194)"/><rect x="619" y="177" width="34" height="34" transform="rotate(0,636,194)"/><rect x="653" y="177" width="34" height="34" transform="rotate(0,670,194)"/><rect x="279" y="211" width="34" height="34" transform="rotate(0,296,228)"/><rect x="347" y="211" width="34" height="34" transform="rotate(0,364,228)"/><rect x="415" y="211" width="34" height="34" transform="rotate(0,432,228)"/><rect x="483" y="211" width="34" height="34" transform="rotate(0,500,228)"/><rect x="551" y="211" width="34" height="34" transform="rotate(0,568,228)"/><rect x="619" y="211" width="34" height="34" transform="rotate(0,636,228)"/><rect x="687" y="211" width="34" height="34" transform="rotate(0,704,228)"/><rect x="347" y="245" width="34" height="34" transform="rotate(0,364,262)"/><rect x="483" y="245" width="34" height="34" transform="rotate(0,500,262)"/><rect x="517" y="245" width="34" height="34" transform="rotate(0,534,262)"/><rect x="551" y="245" width="34" height="34" transform="rotate(0,568,262)"/><rect x="585" y="245" width="34" height="34" transform="rotate(0,602,262)"/><rect x="687" y="245" width="34" height="34" transform="rotate(0,704,262)"/><rect x="41" y="279" width="34" height="34" transform="rotate(0,58,296)"/><rect x="143" y="279" width="34" height="34" transform="rotate(0,160,296)"/><rect x="211" y="279" width="34" height="34" transform="rotate(0,228,296)"/><rect x="279" y="279" width="34" height="34" transform="rotate(0,296,296)"/><rect x="381" y="279" width="34" height="34" transform="rotate(0,398,296)"/><rect x="415" y="279" width="34" height="34" transform="rotate(0,432,296)"/><rect x="551" y="279" width="34" height="34" transform="rotate(0,568,296)"/><rect x="585" y="279" width="34" height="34" transform="rotate(0,602,296)"/><rect x="619" y="279" width="34" height="34" transform="rotate(0,636,296)"/><rect x="653" y="279" width="34" height="34" transform="rotate(0,670,296)"/><rect x="687" y="279" width="34" height="34" transform="rotate(0,704,296)"/><rect x="721" y="279" width="34" height="34" transform="rotate(0,738,296)"/><rect x="789" y="279" width="34" height="34" transform="rotate(0,806,296)"/><rect x="823" y="279" width="34" height="34" transform="rotate(0,840,296)"/><rect x="891" y="279" width="34" height="34" transform="rotate(0,908,296)"/><rect x="7" y="313" width="34" height="34" transform="rotate(0,24,330)"/><rect x="41" y="313" width="34" height="34" transform="rotate(0,58,330)"/><rect x="109" y="313" width="34" height="34" transform="rotate(0,126,330)"/><rect x="279" y="313" width="34" height="34" transform="rotate(0,296,330)"/><rect x="313" y="313" width="34" height="34" transform="rotate(0,330,330)"/><rect x="415" y="313" width="34" height="34" transform="rotate(0,432,330)"/><rect x="449" y="313" width="34" height="34" transform="rotate(0,466,330)"/><rect x="517" y="313" width="34" height="34" transform="rotate(0,534,330)"/><rect x="551" y="313" width="34" height="34" transform="rotate(0,568,330)"/><rect x="755" y="313" width="34" height="34" transform="rotate(0,772,330)"/><rect x="823" y="313" width="34" height="34" transform="rotate(0,840,330)"/><rect x="857" y="313" width="34" height="34" transform="rotate(0,874,330)"/><rect x="891" y="313" width="34" height="34" transform="rotate(0,908,330)"/><rect x="925" y="313" width="34" height="34" transform="rotate(0,942,330)"/><rect x="959" y="313" width="34" height="34" transform="rotate(0,976,330)"/><rect x="75" y="347" width="34" height="34" transform="rotate(0,92,364)"/><rect x="211" y="347" width="34" height="34" transform="rotate(0,228,364)"/><rect x="279" y="347" width="34" height="34" transform="rotate(0,296,364)"/><rect x="347" y="347" width="34" height="34" transform="rotate(0,364,364)"/><rect x="415" y="347" width="34" height="34" transform="rotate(0,432,364)"/><rect x="517" y="347" width="34" height="34" transform="rotate(0,534,364)"/><rect x="721" y="347" width="34" height="34" transform="rotate(0,738,364)"/><rect x="823" y="347" width="34" height="34" transform="rotate(0,840,364)"/><rect x="857" y="347" width="34" height="34" transform="rotate(0,874,364)"/><rect x="891" y="347" width="34" height="34" transform="rotate(0,908,364)"/><rect x="959" y="347" width="34" height="34" transform="rotate(0,976,364)"/><rect x="41" y="381" width="34" height="34" transform="rotate(0,58,398)"/><rect x="143" y="381" width="34" height="34" transform="rotate(0,160,398)"/><rect x="177" y="381" width="34" height="34" transform="rotate(0,194,398)"/><rect x="245" y="381" width="34" height="34" transform="rotate(0,262,398)"/><rect x="279" y="381" width="34" height="34" transform="rotate(0,296,398)"/><rect x="313" y="381" width="34" height="34" transform="rotate(0,330,398)"/><rect x="415" y="381" width="34" height="34" transform="rotate(0,432,398)"/><rect x="517" y="381" width="34" height="34" transform="rotate(0,534,398)"/><rect x="585" y="381" width="34" height="34" transform="rotate(0,602,398)"/><rect x="721" y="381" width="34" height="34" transform="rotate(0,738,398)"/><rect x="789" y="381" width="34" height="34" transform="rotate(0,806,398)"/><rect x="857" y="381" width="34" height="34" transform="rotate(0,874,398)"/><rect x="925" y="381" width="34" height="34" transform="rotate(0,942,398)"/><rect x="959" y="381" width="34" height="34" transform="rotate(0,976,398)"/><rect x="7" y="415" width="34" height="34" transform="rotate(0,24,432)"/><rect x="75" y="415" width="34" height="34" transform="rotate(0,92,432)"/><rect x="109" y="415" width="34" height="34" transform="rotate(0,126,432)"/><rect x="143" y="415" width="34" height="34" transform="rotate(0,160,432)"/><rect x="211" y="415" width="34" height="34" transform="rotate(0,228,432)"/><rect x="245" y="415" width="34" height="34" transform="rotate(0,262,432)"/><rect x="279" y="415" width="34" height="34" transform="rotate(0,296,432)"/><rect x="381" y="415" width="34" height="34" transform="rotate(0,398,432)"/><rect x="415" y="415" width="34" height="34" transform="rotate(0,432,432)"/><rect x="483" y="415" width="34" height="34" transform="rotate(0,500,432)"/><rect x="551" y="415" width="34" height="34" transform="rotate(0,568,432)"/><rect x="585" y="415" width="34" height="34" transform="rotate(0,602,432)"/><rect x="653" y="415" width="34" height="34" transform="rotate(0,670,432)"/><rect x="687" y="415" width="34" height="34" transform="rotate(0,704,432)"/><rect x="789" y="415" width="34" height="34" transform="rotate(0,806,432)"/><rect x="857" y="415" width="34" height="34" transform="rotate(0,874,432)"/><rect x="959" y="415" width="34" height="34" transform="rotate(0,976,432)"/><rect x="7" y="449" width="34" height="34" transform="rotate(0,24,466)"/><rect x="109" y="449" width="34" height="34" transform="rotate(0,126,466)"/><rect x="279" y="449" width="34" height="34" transform="rotate(0,296,466)"/><rect x="381" y="449" width="34" height="34" transform="rotate(0,398,466)"/><rect x="449" y="449" width="34" height="34" transform="rotate(0,466,466)"/><rect x="483" y="449" width="34" height="34" transform="rotate(0,500,466)"/><rect x="551" y="449" width="34" height="34" transform="rotate(0,568,466)"/><rect x="619" y="449" width="34" height="34" transform="rotate(0,636,466)"/><rect x="755" y="449" width="34" height="34" transform="rotate(0,772,466)"/><rect x="823" y="449" width="34" height="34" transform="rotate(0,840,466)"/><rect x="891" y="449" width="34" height="34" transform="rotate(0,908,466)"/><rect x="959" y="449" width="34" height="34" transform="rotate(0,976,466)"/><rect x="75" y="483" width="34" height="34" transform="rotate(0,92,500)"/><rect x="109" y="483" width="34" height="34" transform="rotate(0,126,500)"/><rect x="143" y="483" width="34" height="34" transform="rotate(0,160,500)"/><rect x="177" y="483" width="34" height="34" transform="rotate(0,194,500)"/><rect x="211" y="483" width="34" height="34" transform="rotate(0,228,500)"/><rect x="279" y="483" width="34" height="34" transform="rotate(0,296,500)"/><rect x="347" y="483" width="34" height="34" transform="rotate(0,364,500)"/><rect x="381" y="483" width="34" height="34" transform="rotate(0,398,500)"/><rect x="517" y="483" width="34" height="34" transform="rotate(0,534,500)"/><rect x="619" y="483" width="34" height="34" transform="rotate(0,636,500)"/><rect x="687" y="483" width="34" height="34" transform="rotate(0,704,500)"/><rect x="823" y="483" width="34" height="34" transform="rotate(0,840,500)"/><rect x="959" y="483" width="34" height="34" transform="rotate(0,976,500)"/><rect x="75" y="517" width="34" height="34" transform="rotate(0,92,534)"/><rect x="177" y="517" width="34" height="34" transform="rotate(0,194,534)"/><rect x="245" y="517" width="34" height="34" transform="rotate(0,262,534)"/><rect x="279" y="517" width="34" height="34" transform="rotate(0,296,534)"/><rect x="347" y="517" width="34" height="34" transform="rotate(0,364,534)"/><rect x="483" y="517" width="34" height="34" transform="rotate(0,500,534)"/><rect x="517" y="517" width="34" height="34" transform="rotate(0,534,534)"/><rect x="551" y="517" width="34" height="34" transform="rotate(0,568,534)"/><rect x="585" y="517" width="34" height="34" transform="rotate(0,602,534)"/><rect x="687" y="517" width="34" height="34" transform="rotate(0,704,534)"/><rect x="789" y="517" width="34" height="34" transform="rotate(0,806,534)"/><rect x="857" y="517" width="34" height="34" transform="rotate(0,874,534)"/><rect x="925" y="517" width="34" height="34" transform="rotate(0,942,534)"/><rect x="7" y="551" width="34" height="34" transform="rotate(0,24,568)"/><rect x="143" y="551" width="34" height="34" transform="rotate(0,160,568)"/><rect x="211" y="551" width="34" height="34" transform="rotate(0,228,568)"/><rect x="245" y="551" width="34" height="34" transform="rotate(0,262,568)"/><rect x="347" y="551" width="34" height="34" transform="rotate(0,364,568)"/><rect x="449" y="551" width="34" height="34" transform="rotate(0,466,568)"/><rect x="483" y="551" width="34" height="34" transform="rotate(0,500,568)"/><rect x="585" y="551" width="34" height="34" transform="rotate(0,602,568)"/><rect x="721" y="551" width="34" height="34" transform="rotate(0,738,568)"/><rect x="925" y="551" width="34" height="34" transform="rotate(0,942,568)"/><rect x="959" y="551" width="34" height="34" transform="rotate(0,976,568)"/><rect x="7" y="585" width="34" height="34" transform="rotate(0,24,602)"/><rect x="41" y="585" width="34" height="34" transform="rotate(0,58,602)"/><rect x="109" y="585" width="34" height="34" transform="rotate(0,126,602)"/><rect x="313" y="585" width="34" height="34" transform="rotate(0,330,602)"/><rect x="347" y="585" width="34" height="34" transform="rotate(0,364,602)"/><rect x="381" y="585" width="34" height="34" transform="rotate(0,398,602)"/><rect x="415" y="585" width="34" height="34" transform="rotate(0,432,602)"/><rect x="585" y="585" width="34" height="34" transform="rotate(0,602,602)"/><rect x="619" y="585" width="34" height="34" transform="rotate(0,636,602)"/><rect x="687" y="585" width="34" height="34" transform="rotate(0,704,602)"/><rect x="789" y="585" width="34" height="34" transform="rotate(0,806,602)"/><rect x="823" y="585" width="34" height="34" transform="rotate(0,840,602)"/><rect x="959" y="585" width="34" height="34" transform="rotate(0,976,602)"/><rect x="75" y="619" width="34" height="34" transform="rotate(0,92,636)"/><rect x="109" y="619" width="34" height="34" transform="rotate(0,126,636)"/><rect x="143" y="619" width="34" height="34" transform="rotate(0,160,636)"/><rect x="211" y="619" width="34" height="34" transform="rotate(0,228,636)"/><rect x="245" y="619" width="34" height="34" transform="rotate(0,262,636)"/><rect x="279" y="619" width="34" height="34" transform="rotate(0,296,636)"/><rect x="381" y="619" width="34" height="34" transform="rotate(0,398,636)"/><rect x="415" y="619" width="34" height="34" transform="rotate(0,432,636)"/><rect x="483" y="619" width="34" height="34" transform="rotate(0,500,636)"/><rect x="517" y="619" width="34" height="34" transform="rotate(0,534,636)"/><rect x="551" y="619" width="34" height="34" transform="rotate(0,568,636)"/><rect x="585" y="619" width="34" height="34" transform="rotate(0,602,636)"/><rect x="687" y="619" width="34" height="34" transform="rotate(0,704,636)"/><rect x="823" y="619" width="34" height="34" transform="rotate(0,840,636)"/><rect x="857" y="619" width="34" height="34" transform="rotate(0,874,636)"/><rect x="891" y="619" width="34" height="34" transform="rotate(0,908,636)"/><rect x="959" y="619" width="34" height="34" transform="rotate(0,976,636)"/><rect x="75" y="653" width="34" height="34" transform="rotate(0,92,670)"/><rect x="177" y="653" width="34" height="34" transform="rotate(0,194,670)"/><rect x="245" y="653" width="34" height="34" transform="rotate(0,262,670)"/><rect x="279" y="653" width="34" height="34" transform="rotate(0,296,670)"/><rect x="313" y="653" width="34" height="34" transform="rotate(0,330,670)"/><rect x="347" y="653" width="34" height="34" transform="rotate(0,364,670)"/><rect x="449" y="653" width="34" height="34" transform="rotate(0,466,670)"/><rect x="483" y="653" width="34" height="34" transform="rotate(0,500,670)"/><rect x="551" y="653" width="34" height="34" transform="rotate(0,568,670)"/><rect x="585" y="653" width="34" height="34" transform="rotate(0,602,670)"/><rect x="619" y="653" width="34" height="34" transform="rotate(0,636,670)"/><rect x="687" y="653" width="34" height="34" transform="rotate(0,704,670)"/><rect x="823" y="653" width="34" height="34" transform="rotate(0,840,670)"/><rect x="857" y="653" width="34" height="34" transform="rotate(0,874,670)"/><rect x="925" y="653" width="34" height="34" transform="rotate(0,942,670)"/><rect x="959" y="653" width="34" height="34" transform="rotate(0,976,670)"/><rect x="7" y="687" width="34" height="34" transform="rotate(0,24,704)"/><rect x="41" y="687" width="34" height="34" transform="rotate(0,58,704)"/><rect x="143" y="687" width="34" height="34" transform="rotate(0,160,704)"/><rect x="211" y="687" width="34" height="34" transform="rotate(0,228,704)"/><rect x="313" y="687" width="34" height="34" transform="rotate(0,330,704)"/><rect x="347" y="687" width="34" height="34" transform="rotate(0,364,704)"/><rect x="449" y="687" width="34" height="34" transform="rotate(0,466,704)"/><rect x="551" y="687" width="34" height="34" transform="rotate(0,568,704)"/><rect x="585" y="687" width="34" height="34" transform="rotate(0,602,704)"/><rect x="653" y="687" width="34" height="34" transform="rotate(0,670,704)"/><rect x="687" y="687" width="34" height="34" transform="rotate(0,704,704)"/><rect x="721" y="687" width="34" height="34" transform="rotate(0,738,704)"/><rect x="755" y="687" width="34" height="34" transform="rotate(0,772,704)"/><rect x="789" y="687" width="34" height="34" transform="rotate(0,806,704)"/><rect x="823" y="687" width="34" height="34" transform="rotate(0,840,704)"/><rect x="857" y="687" width="34" height="34" transform="rotate(0,874,704)"/><rect x="279" y="721" width="34" height="34" transform="rotate(0,296,738)"/><rect x="449" y="721" width="34" height="34" transform="rotate(0,466,738)"/><rect x="483" y="721" width="34" height="34" transform="rotate(0,500,738)"/><rect x="517" y="721" width="34" height="34" transform="rotate(0,534,738)"/><rect x="551" y="721" width="34" height="34" transform="rotate(0,568,738)"/><rect x="619" y="721" width="34" height="34" transform="rotate(0,636,738)"/><rect x="653" y="721" width="34" height="34" transform="rotate(0,670,738)"/><rect x="687" y="721" width="34" height="34" transform="rotate(0,704,738)"/><rect x="823" y="721" width="34" height="34" transform="rotate(0,840,738)"/><rect x="891" y="721" width="34" height="34" transform="rotate(0,908,738)"/><rect x="959" y="721" width="34" height="34" transform="rotate(0,976,738)"/><rect x="313" y="755" width="34" height="34" transform="rotate(0,330,772)"/><rect x="415" y="755" width="34" height="34" transform="rotate(0,432,772)"/><rect x="449" y="755" width="34" height="34" transform="rotate(0,466,772)"/><rect x="483" y="755" width="34" height="34" transform="rotate(0,500,772)"/><rect x="517" y="755" width="34" height="34" transform="rotate(0,534,772)"/><rect x="585" y="755" width="34" height="34" transform="rotate(0,602,772)"/><rect x="653" y="755" width="34" height="34" transform="rotate(0,670,772)"/><rect x="687" y="755" width="34" height="34" transform="rotate(0,704,772)"/><rect x="755" y="755" width="34" height="34" transform="rotate(0,772,772)"/><rect x="823" y="755" width="34" height="34" transform="rotate(0,840,772)"/><rect x="925" y="755" width="34" height="34" transform="rotate(0,942,772)"/><rect x="959" y="755" width="34" height="34" transform="rotate(0,976,772)"/><rect x="347" y="789" width="34" height="34" transform="rotate(0,364,806)"/><rect x="381" y="789" width="34" height="34" transform="rotate(0,398,806)"/><rect x="415" y="789" width="34" height="34" transform="rotate(0,432,806)"/><rect x="483" y="789" width="34" height="34" transform="rotate(0,500,806)"/><rect x="517" y="789" width="34" height="34" transform="rotate(0,534,806)"/><rect x="551" y="789" width="34" height="34" transform="rotate(0,568,806)"/><rect x="585" y="789" width="34" height="34" transform="rotate(0,602,806)"/><rect x="619" y="789" width="34" height="34" transform="rotate(0,636,806)"/><rect x="653" y="789" width="34" height="34" transform="rotate(0,670,806)"/><rect x="687" y="789" width="34" height="34" transform="rotate(0,704,806)"/><rect x="823" y="789" width="34" height="34" transform="rotate(0,840,806)"/><rect x="857" y="789" width="34" height="34" transform="rotate(0,874,806)"/><rect x="925" y="789" width="34" height="34" transform="rotate(0,942,806)"/><rect x="279" y="823" width="34" height="34" transform="rotate(0,296,840)"/><rect x="313" y="823" width="34" height="34" transform="rotate(0,330,840)"/><rect x="381" y="823" width="34" height="34" transform="rotate(0,398,840)"/><rect x="415" y="823" width="34" height="34" transform="rotate(0,432,840)"/><rect x="653" y="823" width="34" height="34" transform="rotate(0,670,840)"/><rect x="687" y="823" width="34" height="34" transform="rotate(0,704,840)"/><rect x="721" y="823" width="34" height="34" transform="rotate(0,738,840)"/><rect x="755" y="823" width="34" height="34" transform="rotate(0,772,840)"/><rect x="789" y="823" width="34" height="34" transform="rotate(0,806,840)"/><rect x="823" y="823" width="34" height="34" transform="rotate(0,840,840)"/><rect x="347" y="857" width="34" height="34" transform="rotate(0,364,874)"/><rect x="381" y="857" width="34" height="34" transform="rotate(0,398,874)"/><rect x="551" y="857" width="34" height="34" transform="rotate(0,568,874)"/><rect x="619" y="857" width="34" height="34" transform="rotate(0,636,874)"/><rect x="789" y="857" width="34" height="34" transform="rotate(0,806,874)"/><rect x="959" y="857" width="34" height="34" transform="rotate(0,976,874)"/><rect x="313" y="891" width="34" height="34" transform="rotate(0,330,908)"/><rect x="347" y="891" width="34" height="34" transform="rotate(0,364,908)"/><rect x="415" y="891" width="34" height="34" transform="rotate(0,432,908)"/><rect x="483" y="891" width="34" height="34" transform="rotate(0,500,908)"/><rect x="517" y="891" width="34" height="34" transform="rotate(0,534,908)"/><rect x="551" y="891" width="34" height="34" transform="rotate(0,568,908)"/><rect x="653" y="891" width="34" height="34" transform="rotate(0,670,908)"/><rect x="687" y="891" width="34" height="34" transform="rotate(0,704,908)"/><rect x="721" y="891" width="34" height="34" transform="rotate(0,738,908)"/><rect x="857" y="891" width="34" height="34" transform="rotate(0,874,908)"/><rect x="925" y="891" width="34" height="34" transform="rotate(0,942,908)"/><rect x="959" y="891" width="34" height="34" transform="rotate(0,976,908)"/><rect x="279" y="925" width="34" height="34" transform="rotate(0,296,942)"/><rect x="347" y="925" width="34" height="34" transform="rotate(0,364,942)"/><rect x="483" y="925" width="34" height="34" transform="rotate(0,500,942)"/><rect x="585" y="925" width="34" height="34" transform="rotate(0,602,942)"/><rect x="619" y="925" width="34" height="34" transform="rotate(0,636,942)"/><rect x="721" y="925" width="34" height="34" transform="rotate(0,738,942)"/><rect x="789" y="925" width="34" height="34" transform="rotate(0,806,942)"/><rect x="925" y="925" width="34" height="34" transform="rotate(0,942,942)"/><rect x="959" y="925" width="34" height="34" transform="rotate(0,976,942)"/><rect x="347" y="959" width="34" height="34" transform="rotate(0,364,976)"/><rect x="415" y="959" width="34" height="34" transform="rotate(0,432,976)"/><rect x="449" y="959" width="34" height="34" transform="rotate(0,466,976)"/><rect x="551" y="959" width="34" height="34" transform="rotate(0,568,976)"/><rect x="585" y="959" width="34" height="34" transform="rotate(0,602,976)"/><rect x="687" y="959" width="34" height="34" transform="rotate(0,704,976)"/><rect x="823" y="959" width="34" height="34" transform="rotate(0,840,976)"/><rect x="857" y="959" width="34" height="34" transform="rotate(0,874,976)"/><rect x="925" y="959" width="34" height="34" transform="rotate(0,942,976)"/><path clip-rule="evenodd" d="M 7 7v 238h 238v -238zM 41 41h 170v 170h -170z" transform="rotate(0,126,126)"/><rect x="75" y="75" width="102" height="102" transform="rotate(0,126,126)"/><path clip-rule="evenodd" d="M 755 7v 238h 238v -238zM 789 41h 170v 170h -170z" transform="rotate(90,874,126)"/><rect x="823" y="75" width="102" height="102" transform="rotate(90,874,126)"/><path clip-rule="evenodd" d="M 7 755v 238h 238v -238zM 41 789h 170v 170h -170z" transform="rotate(-90,126,874)"/><rect x="75" y="823" width="102" height="102" transform="rotate(-90,126,874)"/></clipPath></defs><rect x="0" y="0" height="1000" width="1000" clip-path="url('#clip-path-background-color-1')" fill="#FFF"/><rect x="0" y="0" height="1000" width="1000" clip-path="url('#clip-path-dot-color-1')" fill="#222"/></svg>